<svg xmlns="http://www.w3.org/2000/svg" viewBox="0 0 360 44">
<g fill="none" stroke="#d4a94c" stroke-width="1.2" stroke-linecap="round" stroke-linejoin="round">
  <path d="M 196.81 22.32 A 438.00 438.00 0 0 1 304.40 40.04"/>
  <path d="M 204.93 22.71 Q 207.12 31.02 216.86 30.92 Q 213.48 21.78 204.93 22.71 Z M 204.93 22.71 L 212.33 27.80"/>
  <path d="M 204.93 22.71 Q 213.31 24.60 217.71 15.91 Q 208.05 14.70 204.93 22.71 Z M 204.93 22.71 L 212.86 18.50"/>
  <path d="M 219.66 23.80 Q 221.62 31.60 230.73 31.58 Q 227.67 23.00 219.66 23.80 Z M 219.66 23.80 L 226.53 28.62"/>
  <path d="M 219.66 23.80 Q 227.39 26.03 231.96 18.14 Q 223.00 16.48 219.66 23.80 Z M 219.66 23.80 L 227.28 20.29"/>
  <path d="M 234.35 25.38 Q 236.09 32.67 244.57 32.73 Q 241.81 24.71 234.35 25.38 Z M 234.35 25.38 L 240.69 29.94"/>
  <path d="M 234.35 25.38 Q 241.41 27.88 246.07 20.79 Q 237.83 18.75 234.35 25.38 Z M 234.35 25.38 L 241.61 22.53"/>
  <path d="M 248.97 27.46 Q 250.50 34.23 258.36 34.35 Q 255.89 26.89 248.97 27.46 Z M 248.97 27.46 L 254.79 31.73"/>
  <path d="M 248.97 27.46 Q 255.37 30.16 260.04 23.84 Q 252.53 21.51 248.97 27.46 Z M 248.97 27.46 L 255.83 25.22"/>
  <path d="M 263.52 30.04 Q 264.85 36.28 272.08 36.45 Q 269.89 29.56 263.52 30.04 Z M 263.52 30.04 L 268.83 34.01"/>
  <path d="M 263.52 30.04 Q 269.25 32.86 273.86 27.29 Q 267.09 24.74 263.52 30.04 Z M 263.52 30.04 L 269.93 28.34"/>
  <path d="M 277.97 33.10 Q 279.11 38.82 285.71 39.02 Q 283.79 32.71 277.97 33.10 Z M 277.97 33.10 L 282.77 36.77"/>
  <path d="M 277.97 33.10 Q 283.04 35.99 287.52 31.14 Q 281.50 28.45 277.97 33.10 Z M 277.97 33.10 L 283.89 31.88"/>
  <path d="M 292.31 36.64 Q 293.28 41.84 299.25 42.06 Q 297.59 36.33 292.31 36.64 Z M 292.31 36.64 L 296.61 40.00"/>
  <path d="M 292.31 36.64 Q 296.73 39.53 301.02 35.37 Q 295.73 32.61 292.31 36.64 Z M 292.31 36.64 L 297.71 35.86"/>
  <path d="M 304.40 40.04 Q 307.46 44.28 313.22 42.65 Q 309.28 38.14 304.40 40.04 Z M 304.40 40.04 L 309.87 41.66"/>
</g>
<g transform="translate(360,0) scale(-1,1)">
<g fill="none" stroke="#d4a94c" stroke-width="1.2" stroke-linecap="round" stroke-linejoin="round">
  <path d="M 196.81 22.32 A 438.00 438.00 0 0 1 304.40 40.04"/>
  <path d="M 204.93 22.71 Q 207.12 31.02 216.86 30.92 Q 213.48 21.78 204.93 22.71 Z M 204.93 22.71 L 212.33 27.80"/>
  <path d="M 204.93 22.71 Q 213.31 24.60 217.71 15.91 Q 208.05 14.70 204.93 22.71 Z M 204.93 22.71 L 212.86 18.50"/>
  <path d="M 219.66 23.80 Q 221.62 31.60 230.73 31.58 Q 227.67 23.00 219.66 23.80 Z M 219.66 23.80 L 226.53 28.62"/>
  <path d="M 219.66 23.80 Q 227.39 26.03 231.96 18.14 Q 223.00 16.48 219.66 23.80 Z M 219.66 23.80 L 227.28 20.29"/>
  <path d="M 234.35 25.38 Q 236.09 32.67 244.57 32.73 Q 241.81 24.71 234.35 25.38 Z M 234.35 25.38 L 240.69 29.94"/>
  <path d="M 234.35 25.38 Q 241.41 27.88 246.07 20.79 Q 237.83 18.75 234.35 25.38 Z M 234.35 25.38 L 241.61 22.53"/>
  <path d="M 248.97 27.46 Q 250.50 34.23 258.36 34.35 Q 255.89 26.89 248.97 27.46 Z M 248.97 27.46 L 254.79 31.73"/>
  <path d="M 248.97 27.46 Q 255.37 30.16 260.04 23.84 Q 252.53 21.51 248.97 27.46 Z M 248.97 27.46 L 255.83 25.22"/>
  <path d="M 263.52 30.04 Q 264.85 36.28 272.08 36.45 Q 269.89 29.56 263.52 30.04 Z M 263.52 30.04 L 268.83 34.01"/>
  <path d="M 263.52 30.04 Q 269.25 32.86 273.86 27.29 Q 267.09 24.74 263.52 30.04 Z M 263.52 30.04 L 269.93 28.34"/>
  <path d="M 277.97 33.10 Q 279.11 38.82 285.71 39.02 Q 283.79 32.71 277.97 33.10 Z M 277.97 33.10 L 282.77 36.77"/>
  <path d="M 277.97 33.10 Q 283.04 35.99 287.52 31.14 Q 281.50 28.45 277.97 33.10 Z M 277.97 33.10 L 283.89 31.88"/>
  <path d="M 292.31 36.64 Q 293.28 41.84 299.25 42.06 Q 297.59 36.33 292.31 36.64 Z M 292.31 36.64 L 296.61 40.00"/>
  <path d="M 292.31 36.64 Q 296.73 39.53 301.02 35.37 Q 295.73 32.61 292.31 36.64 Z M 292.31 36.64 L 297.71 35.86"/>
  <path d="M 304.40 40.04 Q 307.46 44.28 313.22 42.65 Q 309.28 38.14 304.40 40.04 Z M 304.40 40.04 L 309.87 41.66"/>
</g>
</g>
<rect x="176" y="18" width="8" height="8" transform="rotate(45 180 22)" fill="none" stroke="#d4a94c" stroke-width="1.3"/>
</svg>
